<svg width="21" height="20" viewBox="0 0 21 20" fill="none" xmlns="http://www.w3.org/2000/svg">
<path d="M7.36921 6.11672L2.05255 6.88756L1.95838 6.90672C1.81583 6.94457 1.68588 7.01957 1.58179 7.12406C1.47771 7.22855 1.40322 7.3588 1.36593 7.5015C1.32865 7.64419 1.32991 7.79423 1.36957 7.93629C1.40924 8.07834 1.4859 8.20732 1.59172 8.31006L5.44338 12.0592L4.53505 17.3551L4.52421 17.4467C4.51549 17.5942 4.5461 17.7413 4.61292 17.873C4.67974 18.0047 4.78037 18.1163 4.90449 18.1963C5.02862 18.2764 5.17179 18.322 5.31934 18.3285C5.46689 18.335 5.61352 18.3022 5.74421 18.2334L10.4992 15.7334L15.2434 18.2334L15.3267 18.2717C15.4643 18.3259 15.6138 18.3425 15.7598 18.3199C15.9059 18.2972 16.0434 18.2361 16.158 18.1428C16.2727 18.0495 16.3605 17.9273 16.4124 17.7889C16.4643 17.6505 16.4784 17.5008 16.4534 17.3551L15.5442 12.0592L19.3975 8.30922L19.4625 8.23839C19.5554 8.12403 19.6163 7.9871 19.639 7.84155C19.6617 7.696 19.6454 7.54704 19.5918 7.40983C19.5382 7.27263 19.4491 7.15208 19.3338 7.06049C19.2184 6.96889 19.0808 6.9095 18.935 6.88839L13.6184 6.11672L11.2417 1.30006C11.1729 1.1605 11.0665 1.04299 10.9344 0.960811C10.8023 0.878636 10.6498 0.835083 10.4942 0.835083C10.3386 0.835083 10.1862 0.878636 10.0541 0.960811C9.92195 1.04299 9.81548 1.1605 9.74671 1.30006L7.36921 6.11672Z" fill="#FFB30F"/>
</svg>
